<?xml version="1.0" encoding="UTF-8" standalone="no"?>
<!-- Created with Inkscape (http://www.inkscape.org/) -->

<svg
   version="1.1"
   id="svg9"
   width="1066.6667"
   height="800"
   viewBox="0 0 1066.6667 800"
   sodipodi:docname="parzival_z.svg"
   inkscape:version="1.1.1 (3bf5ae0d25, 2021-09-20, custom)"
   xmlns:inkscape="http://www.inkscape.org/namespaces/inkscape"
   xmlns:sodipodi="http://sodipodi.sourceforge.net/DTD/sodipodi-0.dtd"
   xmlns="http://www.w3.org/2000/svg"
   xmlns:svg="http://www.w3.org/2000/svg">
  <defs
     id="defs13" />
  <sodipodi:namedview
     id="namedview11"
     pagecolor="#505050"
     bordercolor="#eeeeee"
     borderopacity="1"
     inkscape:pageshadow="0"
     inkscape:pageopacity="0"
     inkscape:pagecheckerboard="0"
     showgrid="false"
     inkscape:snap-global="false"
     inkscape:zoom="5.9740515"
     inkscape:cx="528.78687"
     inkscape:cy="459.98934"
     inkscape:window-width="1920"
     inkscape:window-height="1080"
     inkscape:window-x="1366"
     inkscape:window-y="30"
     inkscape:window-maximized="1"
     inkscape:current-layer="g15" />
  <g
     inkscape:groupmode="layer"
     inkscape:label="Image"
     id="g15">
    <path
       style="fill:#61bf60;stroke:none;stroke-width:1.93985;fill-opacity:1"
       d="m 483.89142,315.08866 c -32.07358,0.52104 -35.71889,16.5353 -0.80225,17.1603 0.89139,31.57345 0.13122,-0.0104 0.8852,31.73597 35.79061,0.35718 34.34308,0.39262 35.78133,0.34754 0.0602,-3.85752 -8.8e-4,0.007 0.26643,-31.43421 30.72584,-0.38525 29.72803,-17.5195 0,-17.8096 0,-16.07811 4.89857,-42.81228 -2.77066,-57.1787 -6.63853,-12.43704 -24.57268,-12.88821 -31.11804,-0.12066 m 20.57739,150.30513 -60.85174,63.32304 c -5.33023,5.54866 -20.83792,17.38611 -15.12355,26.845 4.3604,7.21883 17.7725,4.8165 24.63162,4.8165 22.63876,0 87.09596,-12.64877 77.96628,23.74615 25.53444,4.06355 69.89773,-27.07456 36.04705,-54.55081 -16.21317,-13.1613 -49.03128,-6.79338 -68.37451,-6.79338 l 62.75334,-65.30187 c 4.62472,-4.82252 18.96101,-16.27607 13.22193,-24.53181 -4.98555,-2.91879 -5.54537,-3.12983 -24.63163,-3.17208 -38.23518,-0.0846 -92.29211,14.06613 -77.96628,-23.74614 -11.3032,0 -22.40295,-0.62927 -32.25143,6.19972 -14.57397,10.10795 -18.61111,33.9075 -3.67392,45.93888 16.66578,13.42448 48.47602,7.22674 68.25284,7.22674 m -22.8194,102.89992 c -1.42194,32.13694 13.59751,70.8748 36.13071,93.00571 v -93.00571 z"
       id="path171"
       sodipodi:nodetypes="cccccccccccscccccscccccccc" />
  </g>
</svg>
