<?xml version="1.0" encoding="UTF-8" standalone="no"?>
<svg
   xmlns:dc="http://purl.org/dc/elements/1.1/"
   xmlns:cc="http://creativecommons.org/ns#"
   xmlns:rdf="http://www.w3.org/1999/02/22-rdf-syntax-ns#"
   xmlns:svg="http://www.w3.org/2000/svg"
   xmlns="http://www.w3.org/2000/svg"
   xmlns:sodipodi="http://sodipodi.sourceforge.net/DTD/sodipodi-0.dtd"
   xmlns:inkscape="http://www.inkscape.org/namespaces/inkscape"
   viewBox="0 0 56 24"
   version="1.1"
   id="svg8"
   sodipodi:docname="YouTube_Logo.svg"
   inkscape:version="1.0.2-2 (e86c870879, 2021-01-15)">
  <metadata
     id="metadata14">
    <rdf:RDF>
      <cc:Work
         rdf:about="">
        <dc:format>image/svg+xml</dc:format>
        <dc:type
           rdf:resource="http://purl.org/dc/dcmitype/StillImage" />
      </cc:Work>
    </rdf:RDF>
  </metadata>
  <defs
     id="defs12" />
  <sodipodi:namedview
     pagecolor="#ffffff"
     bordercolor="#666666"
     borderopacity="1"
     objecttolerance="10"
     gridtolerance="10"
     guidetolerance="10"
     inkscape:pageopacity="0"
     inkscape:pageshadow="2"
     inkscape:window-width="1366"
     inkscape:window-height="705"
     id="namedview10"
     showgrid="false"
     inkscape:zoom="20.571429"
     inkscape:cx="27.597955"
     inkscape:cy="12.383458"
     inkscape:window-x="-8"
     inkscape:window-y="302"
     inkscape:window-maximized="1"
     inkscape:current-layer="svg8" />
  <path
     d="m 21.775,19.056944 h -2.12 v -1.24 c -0.8,0.94 -1.5,1.4 -2.23,1.4 -0.66,0 -1.1,-0.3 -1.34,-0.87 -0.12,-0.35 -0.22,-0.88 -0.22,-1.67 V 7.6569444 h 2.12 v 9.2599996 c 0.05,0.3 0.18,0.42 0.45,0.42 0.4,0 0.78,-0.37 1.23,-1 V 7.6569444 h 2.12 V 19.056944 m -7.51,-7.68 c 0,-1.22 -0.23,-2.1299996 -0.66,-2.6999996 -0.56,-0.8 -1.45,-1.1 -2.35,-1.1 -1.02,0 -1.8,0.3 -2.35,1.1 -0.44,0.57 -0.67,1.4999996 -0.67,2.6999996 v 4.07 c 0,1.2 0.2,2.04 0.64,2.6 0.56,0.8 1.48,1.2 2.37,1.2 0.9,0 1.82,-0.4 2.4,-1.2 0.4,-0.56 0.6,-1.4 0.6,-2.6 v -4.09 z m -2.1,4.3 c 0.1,1.13 -0.25,1.7 -0.9,1.7 -0.66,0 -1,-0.57 -0.9,-1.7 v -4.52 c -0.1,-1.13 0.24,-1.6599996 0.9,-1.6599996 0.65,0 1,0.5299996 0.9,1.6599996 z m -6.27,-2.82 v 6.2 h -2.23 v -6.2 c 0,0 -2.33,-7.6399996 -2.8,-9.0599996 h 2.35 l 1.57,5.96 1.56,-5.95 h 2.34 l -2.8,9.0399996"
     fill="#111111"
     id="path2" />
  <path
     d="M42.74 9.7c-.33 0-.7.2-1.05.52v6.86c.33.34.7.5 1.04.5.6 0 .85-.42.85-1.55v-4.86c0-1.13-.27-1.46-.86-1.46M51.08 11.07c0-1.05-.27-1.36-.94-1.36-.67 0-.96.3-.96 1.35v1.25h1.9v-1.23"
     fill="#e62117"
     id="path4" />
  <path
     d="m 55.524167,5.3286111 c 0,0 -0.33,-2.3 -1.33,-3.33 -1.27,-1.34999999 -2.7,-1.34999999 -3.34,-1.41999999 -4.67,-0.33 -11.68,-0.33 -11.68,-0.33 h -0.02 c 0,0 -7,0 -11.67,0.33 -0.65,0.08 -2.08,0.08 -3.35,1.41999999 -1,1.02 -1.32,3.33 -1.32,3.33 0,0 -0.34,2.72 -0.34,5.4399999 v 2.55 c 0,2.72 0.34,5.43 0.34,5.43 0,0 0.32,2.32 1.32,3.34 1.27,1.34 2.94,1.3 3.68,1.43 2.67,0.26 11.35,0.34 11.35,0.34 0,0 7.03,0 11.7,-0.34 0.65,-0.08 2.07,-0.08 3.34,-1.42 1,-1.02 1.33,-3.34 1.33,-3.34 0,0 0.32,-2.71 0.32,-5.44 v -2.55 c 0,-2.7199999 -0.33,-5.4399999 -0.33,-5.4399999 z m -25.72,14.0199999 h -2.23 V 6.3486111 h -2.35 v -2.12 h 7.04 v 2.12 h -2.45 V 19.348611 Z m 8.05,0 h -2.12 v -1.24 c -0.8,0.94 -1.5,1.4 -2.23,1.4 -0.66,0 -1.1,-0.3 -1.34,-0.87 -0.12,-0.35 -0.22,-0.88 -0.22,-1.67 V 8.0486111 h 2.12 v 9.1699999 c 0.05,0.3 0.18,0.42 0.45,0.42 0.4,0 0.78,-0.37 1.23,-1 V 8.0486111 h 2.11 z m 7.7,-3.38 c 0,1.04 -0.07,1.78 -0.2,2.26 -0.28,0.84 -0.87,1.27 -1.67,1.27 -0.72,0 -1.46,-0.44 -2.14,-1.28 v 1.14 h -2.02 V 4.2286111 h 2 v 4.92 c 0.66,-0.8 1.4,-1.27 2.15,-1.27 0.8,0 1.34,0.47 1.6,1.3 0.15,0.47 0.28,1.1999999 0.28,2.2699999 z m 4.46,1.67 c 0.5,0 0.8,-0.28 0.9,-0.83 0.02,-0.1 0.02,-0.6 0.02,-1.42 h 2.12 v 0.32 c 0,0.66 -0.05,1.13 -0.07,1.33 -0.07,0.46 -0.23,0.87 -0.47,1.23 -0.56,0.82 -1.4,1.22 -2.45,1.22 -1.05,0 -1.85,-0.38 -2.44,-1.16 -0.43,-0.57 -0.7,-1.4 -0.7,-2.6 v -3.96 c 0,-1.2 0.25,-2.1399999 0.68,-2.7199999 0.58,-0.77 1.4,-1.18 2.42,-1.18 1.02,0 1.82,0.4 2.4,1.18 0.4,0.58 0.65,1.4599999 0.65,2.6699999 v 2.33 h -4.02 v 2.02 c 0,1.05 0.3,1.57 0.98,1.57 z"
     fill="#e62117"
     id="path6" />
</svg>
